<svg width="17" height="20" viewBox="0 0 17 20" fill="none" xmlns="http://www.w3.org/2000/svg">
<path d="M13.8672 1.15425C15.1941 0.24198 16.9998 1.1915 17 2.80171V17.1982C16.9997 18.8083 15.1941 19.7578 13.8672 18.8457L3.39746 11.6484C3.24451 11.5432 3.11247 11.4209 3 11.288V17.5C2.99996 18.3284 2.3284 19 1.5 19C0.671595 19 3.60449e-05 18.3284 0 17.5V2.49995C0 1.67153 0.671573 0.999953 1.5 0.999953C2.32843 0.999953 3 1.67153 3 2.49995V8.71089C3.11239 8.57822 3.2447 8.45654 3.39746 8.35152L13.8672 1.15425Z" fill="white" fill-opacity="0.4"/>
</svg>
