<svg width="17" height="19" viewBox="0 0 17 19" fill="none" xmlns="http://www.w3.org/2000/svg">
<path d="M13.8672 0.355422C15.1941 -0.556848 16.9998 0.392668 17 2.00288V16.3994C16.9997 18.0095 15.1941 18.959 13.8672 18.0468L3.39746 10.8496C3.24451 10.7444 3.11247 10.6221 3 10.4892V16.7011C2.99996 17.5295 2.3284 18.2011 1.5 18.2011C0.671595 18.2011 3.60449e-05 17.5295 0 16.7011V1.70113C0 0.872698 0.671573 0.201125 1.5 0.201125C2.32843 0.201125 3 0.872698 3 1.70113V7.91206C3.11239 7.77939 3.2447 7.65771 3.39746 7.55269L13.8672 0.355422Z" fill="white"/>
</svg>
