<svg width="22" height="22" viewBox="0 0 22 22" fill="none" xmlns="http://www.w3.org/2000/svg">
<path d="M14.171 6.24283C14.2389 6.3865 14.3458 6.50143 14.472 6.59721C14.5982 6.69298 14.7439 6.75045 14.8992 6.76961L20.0652 7.50709C20.4633 7.56455 20.7449 7.83273 20.8517 8.15837C20.9585 8.48401 20.8905 8.86712 20.6089 9.14487L18.7446 10.9455L16.8802 12.7461C16.7636 12.8514 16.686 12.9951 16.6374 13.1388C16.5889 13.2824 16.5791 13.4453 16.6083 13.5985L17.4919 18.6747C17.5599 19.0674 17.3851 19.4122 17.1035 19.6133C16.8219 19.8144 16.4335 19.8719 16.0839 19.6899L11.4618 17.2955C11.3161 17.2189 11.1607 17.1901 11.0054 17.1901C10.85 17.1901 10.6946 17.2285 10.549 17.2955L5.92686 19.6899C5.56757 19.8719 5.18886 19.8144 4.90726 19.6133C4.62566 19.4122 4.45088 19.0674 4.51885 18.6747L5.40249 13.5985C5.43163 13.4453 5.4122 13.2824 5.37336 13.1388C5.33452 12.9951 5.23742 12.861 5.1306 12.7461L1.39211 9.15445C1.1008 8.8767 1.04253 8.49359 1.14935 8.16795C1.25616 7.84231 1.53776 7.57413 1.93589 7.51667L7.10181 6.77918C7.25718 6.76003 7.40283 6.69298 7.52907 6.60678C7.6553 6.52059 7.76212 6.39608 7.83009 6.25241L10.1412 1.63596C10.3159 1.28159 10.6655 1.09961 11.0151 1.09961C11.3647 1.09961 11.7045 1.28159 11.889 1.63596" fill="#FFCC61" fill-opacity="0.6"/>
<path d="M14.171 6.24283C14.2389 6.3865 14.3458 6.50143 14.472 6.59721C14.5982 6.69298 14.7439 6.75045 14.8992 6.76961L20.0652 7.50709C20.4633 7.56455 20.7449 7.83273 20.8517 8.15837C20.9585 8.48401 20.8905 8.86712 20.6089 9.14487L18.7446 10.9455L16.8802 12.7461C16.7636 12.8514 16.686 12.9951 16.6374 13.1388C16.5889 13.2824 16.5791 13.4453 16.6083 13.5985L17.4919 18.6747C17.5599 19.0674 17.3851 19.4122 17.1035 19.6133C16.8219 19.8144 16.4335 19.8719 16.0839 19.6899L11.4618 17.2955C11.3161 17.2189 11.1607 17.1901 11.0054 17.1901C10.85 17.1901 10.6946 17.2284 10.549 17.2955L5.92686 19.6899C5.56757 19.8719 5.18886 19.8144 4.90726 19.6133C4.62566 19.4122 4.45088 19.0674 4.51885 18.6747L5.40249 13.5985C5.43163 13.4453 5.4122 13.2824 5.37336 13.1388C5.33452 12.9951 5.23742 12.861 5.1306 12.7461L1.39211 9.15445C1.1008 8.8767 1.04253 8.49359 1.14935 8.16795C1.25616 7.84231 1.53776 7.57413 1.93589 7.51667L7.10181 6.77918C7.25718 6.76003 7.40283 6.69298 7.52907 6.60678C7.6553 6.52059 7.76212 6.39608 7.83009 6.25241L10.1412 1.63596C10.3159 1.28159 10.6655 1.09961 11.0151 1.09961C11.3647 1.09961 11.7045 1.28159 11.889 1.63596" stroke="#FFCC61" stroke-width="1.5" stroke-linecap="round" stroke-linejoin="round"/>
</svg>
