<svg width="14" height="12" viewBox="0 0 14 12" fill="none" xmlns="http://www.w3.org/2000/svg">
<g clip-path="url(#clip0_1_1072)">
<path d="M11.1883 11.9991H2.8224C1.97773 11.9991 1.26784 11.3849 1.14204 10.5659L0.00981934 2.94572C-0.106997 2.15344 0.845506 1.66382 1.42959 2.20685L3.32561 3.96946C3.74795 4.36115 4.43087 4.22762 4.67349 3.72021L6.22805 0.470947C6.53357 -0.170003 7.45013 -0.170003 7.76463 0.470947L9.31919 3.72021C9.56181 4.23653 10.2447 4.36115 10.6671 3.96946L12.5631 2.20685C13.1472 1.66382 14.0997 2.15344 13.9829 2.94572L12.8506 10.557C12.7248 11.3849 12.015 11.9902 11.1703 11.9902L11.1883 11.9991Z" fill="#F7CF61"/>
<path d="M12.86 10.5484V10.5662C12.7432 11.3941 12.0243 11.9994 11.1796 11.9994H2.82275C1.97807 11.9994 1.26819 11.3941 1.14239 10.5662L0.0101653 2.94602C-0.0976652 2.23385 0.67512 1.76204 1.25022 2.09142L2.30156 9.18638C2.42737 10.0143 3.14624 10.6285 3.98192 10.6285H12.3478C12.5275 10.6285 12.6982 10.6018 12.86 10.5484Z" fill="#F6BE53"/>
<g filter="url(#filter0_d_1_1072)">
<path d="M10.3253 5.3418L7.00056 10.2201L3.67578 5.3418H5.85036L7.00056 7.03319L8.15075 5.3418H10.3253Z" fill="white"/>
</g>
</g>
<defs>
<filter id="filter0_d_1_1072" x="-0.324219" y="1.3418" width="14.6494" height="12.8779" filterUnits="userSpaceOnUse" color-interpolation-filters="sRGB">
<feFlood flood-opacity="0" result="BackgroundImageFix"/>
<feColorMatrix in="SourceAlpha" type="matrix" values="0 0 0 0 0 0 0 0 0 0 0 0 0 0 0 0 0 0 127 0" result="hardAlpha"/>
<feOffset/>
<feGaussianBlur stdDeviation="2"/>
<feComposite in2="hardAlpha" operator="out"/>
<feColorMatrix type="matrix" values="0 0 0 0 1 0 0 0 0 0.603152 0 0 0 0 0.231908 0 0 0 1 0"/>
<feBlend mode="normal" in2="BackgroundImageFix" result="effect1_dropShadow_1_1072"/>
<feBlend mode="normal" in="SourceGraphic" in2="effect1_dropShadow_1_1072" result="shape"/>
</filter>
<clipPath id="clip0_1_1072">
<rect width="14" height="12" fill="white"/>
</clipPath>
</defs>
</svg>
