<svg width="22" height="22" viewBox="0 0 22 22" fill="none" xmlns="http://www.w3.org/2000/svg">
<path d="M10.9996 20.8996C16.4672 20.8996 20.8996 16.4672 20.8996 10.9996C20.8996 5.53199 16.4672 1.09961 10.9996 1.09961C5.53199 1.09961 1.09961 5.53199 1.09961 10.9996C1.09961 16.4672 5.53199 20.8996 10.9996 20.8996Z" stroke="#6BEDF2" stroke-width="1.5" stroke-linecap="round" stroke-linejoin="round"/>
<path d="M7.73607 10.7223H9.05847C9.05847 10.7223 9.05446 10.7535 9.04645 10.816C9.04645 10.8784 9.04645 10.9525 9.04645 11.0383C9.04645 11.1241 9.04244 11.1943 9.03443 11.2489C8.99435 12.1305 8.94627 12.8521 8.89016 13.4138C8.84208 13.9755 8.77796 14.4163 8.69781 14.7362C8.62568 15.0482 8.53352 15.2706 8.42131 15.4032C8.29308 15.5592 8.15683 15.6684 8.01257 15.7309C7.87632 15.8011 7.70801 15.8479 7.50765 15.8713C7.34736 15.8947 7.13497 15.9103 6.87049 15.9181C6.61403 15.9259 6.34153 15.922 6.05301 15.9064C6.03698 15.6957 5.98889 15.4617 5.90874 15.2043C5.83661 14.9468 5.74044 14.7284 5.62022 14.5489C5.86867 14.5645 6.10911 14.5762 6.34153 14.584C6.58197 14.5918 6.75829 14.5957 6.87049 14.5957C6.96667 14.5957 7.04681 14.5879 7.11093 14.5723C7.17505 14.5567 7.23515 14.5216 7.29126 14.467C7.3714 14.3812 7.43552 14.2135 7.48361 13.9638C7.53971 13.7142 7.5878 13.3436 7.62787 12.8521C7.66794 12.3528 7.70401 11.7053 7.73607 10.9096V10.7223ZM5.68033 8.06596H6.89454C6.89454 8.48723 6.88652 8.93582 6.87049 9.4117C6.86248 9.88759 6.85046 10.344 6.83443 10.7809C6.8184 11.2177 6.79435 11.6 6.7623 11.9277H5.52404C5.5561 11.5844 5.58415 11.1943 5.6082 10.7574C5.63224 10.3206 5.64827 9.86808 5.65628 9.4C5.67231 8.92411 5.68033 8.47943 5.68033 8.06596ZM6.01694 10.7223H8.34918V11.9277H5.87268L6.01694 10.7223ZM5.93279 8.06596H7.68798V6.75532H5.5V5.51489H9.07049V9.31809H5.93279V8.06596ZM12.112 8.05425H13.5907V16H12.112V8.05425ZM10.1284 5.5617L11.2825 5.04681C11.4989 5.32766 11.7153 5.63191 11.9317 5.95957C12.1481 6.28723 12.3164 6.57589 12.4366 6.82553L11.2464 7.43404C11.1743 7.26241 11.0741 7.06738 10.9459 6.84894C10.8257 6.6305 10.6934 6.40816 10.5492 6.18192C10.4049 5.95567 10.2647 5.74894 10.1284 5.5617ZM14.2158 5L15.6705 5.39787C15.5102 5.71773 15.3379 6.03759 15.1536 6.35745C14.9772 6.6695 14.7969 6.96596 14.6126 7.24681C14.4362 7.52766 14.2679 7.7773 14.1077 7.99574L12.9175 7.60957C13.0698 7.37553 13.226 7.11028 13.3863 6.81383C13.5546 6.50957 13.7109 6.20142 13.8552 5.88936C14.0075 5.5695 14.1277 5.27305 14.2158 5ZM11.0301 10.3128V11.0032H14.7087V10.3128H11.0301ZM11.0301 8.60425V9.29468H14.7087V8.60425H11.0301ZM9.73169 7.51596H16.0792V12.0915H9.73169V7.51596ZM9.08251 12.7936H16.5V14.0223H9.08251V12.7936Z" fill="#6BEDF2"/>
</svg>
