<svg width="22" height="22" viewBox="0 0 22 22" fill="none" xmlns="http://www.w3.org/2000/svg">
<path d="M10.65 20.55C16.1176 20.55 20.55 16.1176 20.55 10.65C20.55 5.18238 16.1176 0.75 10.65 0.75C5.18238 0.75 0.75 5.18238 0.75 10.65C0.75 16.1176 5.18238 20.55 10.65 20.55Z" stroke="#888888" stroke-width="1.5" stroke-linecap="round" stroke-linejoin="round"/>
<path d="M7.38646 10.3727H8.70886C8.70886 10.3727 8.70485 10.4039 8.69684 10.4663C8.69684 10.5288 8.69684 10.6029 8.69684 10.6887C8.69684 10.7745 8.69283 10.8447 8.68482 10.8993C8.64474 11.7809 8.59666 12.5025 8.54056 13.0642C8.49247 13.6259 8.42835 14.0667 8.3482 14.3866C8.27607 14.6986 8.18391 14.921 8.0717 15.0536C7.94347 15.2096 7.80722 15.3188 7.66296 15.3812C7.52671 15.4515 7.35841 15.4983 7.15804 15.5217C6.99775 15.5451 6.78536 15.5607 6.52088 15.5685C6.26442 15.5763 5.99192 15.5724 5.7034 15.5568C5.68737 15.3461 5.63928 15.1121 5.55913 14.8546C5.487 14.5972 5.39083 14.3788 5.27061 14.1993C5.51906 14.2149 5.7595 14.2266 5.99192 14.2344C6.23236 14.2422 6.40868 14.2461 6.52088 14.2461C6.61706 14.2461 6.6972 14.2383 6.76132 14.2227C6.82544 14.2071 6.88555 14.172 6.94165 14.1174C7.02179 14.0316 7.08591 13.8639 7.134 13.6142C7.1901 13.3646 7.23819 12.994 7.27826 12.5025C7.31833 12.0032 7.3544 11.3557 7.38646 10.56V10.3727ZM5.33072 7.71635H6.54493C6.54493 8.13762 6.53691 8.58621 6.52088 9.06209C6.51287 9.53798 6.50085 9.99436 6.48482 10.4312C6.46879 10.8681 6.44474 11.2504 6.41269 11.578H5.17443C5.20649 11.2348 5.23454 10.8447 5.25859 10.4078C5.28263 9.97096 5.29866 9.51848 5.30667 9.05039C5.3227 8.5745 5.33072 8.12982 5.33072 7.71635ZM5.66733 10.3727H7.99957V11.578H5.52307L5.66733 10.3727ZM5.58318 7.71635H7.33837V6.40571H5.15039V5.16528H8.72088V8.96848H5.58318V7.71635ZM11.7624 7.70465H13.2411V15.6504H11.7624V7.70465ZM9.77881 5.21209L10.9329 4.6972C11.1493 4.97805 11.3657 5.28231 11.5821 5.60997C11.7985 5.93762 11.9668 6.22628 12.087 6.47592L10.8968 7.08443C10.8247 6.9128 10.7245 6.71777 10.5963 6.49933C10.4761 6.28089 10.3438 6.05855 10.1996 5.83231C10.0553 5.60606 9.91505 5.39933 9.77881 5.21209ZM13.8662 4.65039L15.3209 5.04826C15.1606 5.36812 14.9883 5.68798 14.8039 6.00784C14.6276 6.31989 14.4473 6.61635 14.263 6.8972C14.0866 7.17805 13.9183 7.4277 13.758 7.64614L12.5679 7.25996C12.7202 7.02592 12.8764 6.76067 13.0367 6.46422C13.205 6.15997 13.3613 5.85181 13.5056 5.53975C13.6579 5.21989 13.7781 4.92344 13.8662 4.65039ZM10.6804 9.96316V10.6536H14.3591V9.96316H10.6804ZM10.6804 8.25465V8.94507H14.3591V8.25465H10.6804ZM9.38208 7.16635H15.7296V11.7419H9.38208V7.16635ZM8.7329 12.444H16.1504V13.6727H8.7329V12.444Z" fill="#888888"/>
</svg>
