<svg width="17" height="20" viewBox="0 0 17 20" fill="none" xmlns="http://www.w3.org/2000/svg">
<path d="M3.13281 18.8457C1.80587 19.758 0.000177418 18.8085 1.75098e-07 17.1983L1.43368e-06 2.8018C0.00027814 1.19169 1.80592 0.242153 3.13281 1.15434L13.6025 8.35161C13.7555 8.45677 13.8875 8.5791 14 8.71196L14 2.50005C14 1.67165 14.6716 1.00005 15.5 1.00005C16.3284 1.00005 17 1.67165 17 2.50005L17 17.5C17 18.3285 16.3284 19 15.5 19C14.6716 19 14 18.3285 14 17.5L14 11.2891C13.8876 11.4218 13.7553 11.5435 13.6025 11.6485L3.13281 18.8457Z" fill="white"/>
</svg>
