<svg width="22" height="22" viewBox="0 0 22 22" fill="none" xmlns="http://www.w3.org/2000/svg">
<g clip-path="url(#clip0_1_1253)">
<path d="M21.1183 9.01971L21.5583 6.04971C21.6683 5.60971 21.1183 5.27971 20.7883 5.49971L17.8183 6.92971C17.3783 7.14971 17.3783 7.69971 17.8183 7.91971L20.3483 9.34971C20.6783 9.67971 21.1183 9.45971 21.1183 9.01971Z" fill="#888888"/>
<path d="M0.438682 12.0992L-0.00131787 15.0692C-0.111318 15.5092 0.438682 15.8392 0.768682 15.6192L3.73868 14.1892C4.17868 13.9692 4.17868 13.4192 3.73868 13.1992L1.20868 11.7692C0.878682 11.5492 0.438682 11.7692 0.438682 12.0992Z" fill="#888888"/>
<path d="M2.08789 7.03961C2.52789 5.93961 3.29789 4.83961 4.17789 3.95961C5.05789 3.07961 6.04789 2.41961 7.25789 1.86961C8.46789 1.31961 9.67789 1.09961 10.9979 1.09961C12.3179 1.09961 13.6379 1.31961 14.7379 1.86961C15.8379 2.41961 16.9379 3.07961 17.8179 3.95961C18.6979 4.83961 19.3579 5.82961 19.9079 7.03961" stroke="#888888" stroke-width="1.5" stroke-miterlimit="10" stroke-linecap="round" stroke-linejoin="round"/>
<path d="M19.6885 14.5192C19.2485 15.6192 18.4785 16.7192 17.5985 17.5992C16.7185 18.4792 15.7285 19.1392 14.5185 19.6892C13.3085 20.2392 12.0985 20.4592 10.7785 20.4592C9.45852 20.4592 8.24852 20.1292 7.14852 19.5792C6.04852 19.0292 4.94852 18.3692 4.06852 17.4892C3.18852 16.6092 2.52852 15.6192 1.97852 14.4092" stroke="#888888" stroke-width="1.5" stroke-miterlimit="10" stroke-linecap="round" stroke-linejoin="round"/>
<path d="M13.6394 9.78978L10.0094 7.69978C9.23938 7.25978 8.35938 7.80978 8.35938 8.68978V12.8698C8.35938 13.7498 9.23938 14.2998 10.0094 13.8598L13.6394 11.7698C14.2994 11.3298 14.2994 10.2298 13.6394 9.78978Z" fill="#888888"/>
</g>
<defs>
<clipPath id="clip0_1_1253">
<rect width="22" height="22" fill="white"/>
</clipPath>
</defs>
</svg>
