<svg width="19" height="21" viewBox="0 0 19 21" fill="none" xmlns="http://www.w3.org/2000/svg">
<path d="M9.47 2C14.29 2 18.19 5.91 18.19 10.72C18.19 15.53 14.28 19.44 9.47 19.44C4.66 19.44 0.75 15.53 0.75 10.72" stroke="#CCCCCC" stroke-width="1.5" stroke-linecap="round" stroke-linejoin="round"/>
<path d="M6.78977 2.41962L9.01976 3.93962C9.34976 4.16962 9.79976 3.92962 9.79976 3.52962V0.499616C9.79976 0.0996156 9.34976 -0.140384 9.01976 0.0896155L6.78977 1.60962C6.49977 1.80962 6.49977 2.23962 6.78977 2.43962V2.41962Z" fill="#CCCCCC"/>
<path d="M7.26062 14.4599C7.26062 14.4599 7.26062 14.4599 7.24062 14.4599H5.91062C5.91062 14.4599 5.90062 14.4599 5.89062 14.4599C5.88063 14.4599 5.89062 14.4599 5.89062 14.4399V8.20988H4.91062C4.91062 8.20988 4.90062 8.20988 4.89063 8.20988C4.89063 8.20988 4.89063 8.20988 4.89063 8.18988V6.89988C4.89063 6.89988 4.89063 6.88988 4.89063 6.87988C4.89063 6.87988 4.89062 6.87988 4.91062 6.87988H7.24062C7.24062 6.87988 7.25062 6.87988 7.26062 6.87988C7.26062 6.87988 7.26062 6.87988 7.26062 6.89988V14.4399C7.26062 14.4399 7.26062 14.4499 7.26062 14.4599Z" fill="#CCCCCC"/>
<path d="M8.86133 12.3199C8.86133 12.3199 8.86132 12.3199 8.88132 12.3199H10.2113C10.2113 12.3199 10.2213 12.3199 10.2313 12.3199C10.2413 12.3199 10.2313 12.3199 10.2313 12.3399C10.2313 12.5399 10.2813 12.7099 10.3913 12.8499C10.5013 12.9899 10.6413 13.0899 10.8313 13.1599C11.0213 13.2299 11.2313 13.2599 11.4913 13.2399C11.7213 13.2399 11.9213 13.1699 12.0913 13.0599C12.2713 12.9499 12.4113 12.7999 12.5113 12.5999C12.6113 12.3999 12.6813 12.1899 12.6913 11.9299C12.7113 11.5099 12.6213 11.1699 12.4213 10.9299C12.2213 10.6799 11.9213 10.5499 11.5313 10.5299C11.1413 10.5099 10.6913 10.6099 10.1713 10.8399C10.1713 10.8399 10.1613 10.8399 10.1513 10.8399L9.40133 10.3699C9.40133 10.3699 9.39133 10.3599 9.39133 10.3399L9.95132 6.89988C9.95132 6.89988 9.95133 6.87988 9.97133 6.87988H13.4313C13.4313 6.87988 13.4413 6.87988 13.4513 6.87988C13.4513 6.87988 13.4513 6.87988 13.4513 6.89988V8.18988C13.4513 8.18988 13.4513 8.19988 13.4513 8.20988C13.4513 8.20988 13.4513 8.20988 13.4313 8.20988H11.1213L10.9313 9.47988C11.5313 9.34988 12.0713 9.37988 12.5613 9.55988C13.0513 9.73988 13.4313 10.0499 13.7013 10.4799C13.9713 10.9099 14.0913 11.4199 14.0613 11.9899C14.0413 12.4299 13.9113 12.8399 13.6813 13.2199C13.4513 13.6099 13.1513 13.9199 12.7713 14.1599C12.3913 14.3999 11.9913 14.5299 11.5613 14.5499C11.1013 14.5799 10.6713 14.4999 10.2613 14.2999C9.85132 14.1099 9.51132 13.8399 9.26132 13.4799C9.00132 13.1299 8.87132 12.7399 8.87132 12.3099C8.87132 12.3099 8.87132 12.2999 8.87132 12.2899L8.86133 12.3199Z" fill="#CCCCCC"/>
</svg>
