<svg width="19" height="21" viewBox="0 0 19 21" fill="none" xmlns="http://www.w3.org/2000/svg">
<path d="M9.46994 2C4.64994 2 0.74994 5.91 0.74994 10.72C0.74994 15.53 4.65994 19.44 9.46994 19.44C14.2799 19.44 18.1899 15.53 18.1899 10.72" stroke="#CCCCCC" stroke-width="1.5" stroke-linecap="round" stroke-linejoin="round"/>
<path d="M12.1502 2.41962L9.92018 3.93962C9.59018 4.16962 9.14018 3.92962 9.14018 3.52962V0.499616C9.14018 0.0996156 9.59018 -0.140384 9.92018 0.0896155L12.1502 1.60962C12.4402 1.80962 12.4402 2.23962 12.1502 2.43962V2.41962Z" fill="#CCCCCC"/>
<path d="M7.4408 14.4599C7.4408 14.4599 7.4408 14.4599 7.4208 14.4599H6.0908C6.0908 14.4599 6.0808 14.4599 6.0708 14.4599C6.0608 14.4599 6.0708 14.4599 6.0708 14.4399V8.20988H5.0908C5.0908 8.20988 5.0808 8.20988 5.0708 8.20988C5.0708 8.20988 5.0708 8.20988 5.0708 8.18988V6.89988C5.0708 6.89988 5.0708 6.88988 5.0708 6.87988C5.0708 6.87988 5.0708 6.87988 5.0908 6.87988H7.4208C7.4208 6.87988 7.4308 6.87988 7.4408 6.87988C7.4408 6.87988 7.4408 6.87988 7.4408 6.89988V14.4399C7.4408 14.4399 7.4408 14.4499 7.4408 14.4599Z" fill="#CCCCCC"/>
<path d="M9.0415 12.3199C9.0415 12.3199 9.0415 12.3199 9.0615 12.3199H10.3915C10.3915 12.3199 10.4015 12.3199 10.4115 12.3199C10.4215 12.3199 10.4115 12.3199 10.4115 12.3399C10.4115 12.5399 10.4615 12.7099 10.5715 12.8499C10.6815 12.9899 10.8215 13.0899 11.0115 13.1599C11.2015 13.2299 11.4115 13.2599 11.6715 13.2399C11.9015 13.2399 12.1015 13.1699 12.2715 13.0599C12.4515 12.9499 12.5915 12.7999 12.6915 12.5999C12.7915 12.3999 12.8615 12.1899 12.8715 11.9299C12.8915 11.5099 12.8015 11.1699 12.6015 10.9299C12.4015 10.6799 12.1015 10.5499 11.7115 10.5299C11.3215 10.5099 10.8715 10.6099 10.3515 10.8399C10.3515 10.8399 10.3415 10.8399 10.3315 10.8399L9.5815 10.3699C9.5815 10.3699 9.5715 10.3599 9.5715 10.3399L10.1315 6.89988C10.1315 6.89988 10.1315 6.87988 10.1515 6.87988H13.6115C13.6115 6.87988 13.6215 6.87988 13.6315 6.87988C13.6315 6.87988 13.6315 6.87988 13.6315 6.89988V8.18988C13.6315 8.18988 13.6315 8.19988 13.6315 8.20988C13.6315 8.20988 13.6315 8.20988 13.6115 8.20988H11.3015L11.1115 9.47988C11.7115 9.34988 12.2515 9.37988 12.7415 9.55988C13.2315 9.73988 13.6115 10.0499 13.8815 10.4799C14.1515 10.9099 14.2715 11.4199 14.2415 11.9899C14.2215 12.4299 14.0915 12.8399 13.8615 13.2199C13.6315 13.6099 13.3315 13.9199 12.9515 14.1599C12.5715 14.3999 12.1715 14.5299 11.7415 14.5499C11.2815 14.5799 10.8515 14.4999 10.4415 14.2999C10.0315 14.1099 9.6915 13.8399 9.4415 13.4799C9.1815 13.1299 9.0515 12.7399 9.0515 12.3099C9.0515 12.3099 9.0515 12.2999 9.0515 12.2899L9.0415 12.3199Z" fill="#CCCCCC"/>
</svg>
